HIERARCHY
ROOT Hips
{
	OFFSET 0.000000 71.427986 0.000000
	CHANNELS 6 Xposition Yposition Zposition Xrotation Yrotation Zrotation
	JOINT Pelvis
	{
		OFFSET 0.000000 0.000000 0.000000
		CHANNELS 3 Xrotation Yrotation Zrotation
		JOINT LeftUpLeg
		{
			OFFSET 6.797100 -2.508499 -1.318700
			CHANNELS 3 Xrotation Yrotation Zrotation
			JOINT LeftLeg
			{
				OFFSET 0.069008 -29.241863 0.690200
				CHANNELS 3 Xrotation Yrotation Zrotation
				JOINT LeftFoot
				{
					OFFSET -0.069008 -29.568123 -0.266800
					CHANNELS 3 Xrotation Yrotation Zrotation
					JOINT LeftToeBase
					{
						OFFSET 3.145500 -8.631000 16.059900
						CHANNELS 3 Xrotation Yrotation Zrotation
						End Site
						{
							OFFSET 0.000000 18.501587 0.000000
						}
					}
				}
			}
			JOINT Left_ShortSleeve
			{
				OFFSET 0.265923 -10.480953 1.153800
				CHANNELS 3 Xrotation Yrotation Zrotation
				End Site
				{
					OFFSET 1.725763 19.823879 0.000000
				}
			}
		}
		JOINT RightUpLeg
		{
			OFFSET -6.797100 -2.508499 -1.318700
			CHANNELS 3 Xrotation Yrotation Zrotation
			JOINT RightLeg
			{
				OFFSET -0.082453 -29.241932 0.688000
				CHANNELS 3 Xrotation Yrotation Zrotation
				JOINT RightFoot
				{
					OFFSET 0.082453 -29.568058 -0.264600
					CHANNELS 3 Xrotation Yrotation Zrotation
					JOINT RightToeBase
					{
						OFFSET -3.115300 -8.682800 16.113400
						CHANNELS 3 Xrotation Yrotation Zrotation
						End Site
						{
							OFFSET 0.000000 18.567114 0.000000
						}
					}
				}
			}
			JOINT Right_ShortSleeve
			{
				OFFSET -0.265923 -10.480953 1.153800
				CHANNELS 3 Xrotation Yrotation Zrotation
				End Site
				{
					OFFSET -1.725766 19.823910 0.000000
				}
			}
		}
	}
	JOINT Spine
	{
		OFFSET 0.000000 13.368103 0.470500
		CHANNELS 3 Xrotation Yrotation Zrotation
		JOINT Spine1
		{
			OFFSET 0.147000 13.837402 0.538800
			CHANNELS 3 Xrotation Yrotation Zrotation
			JOINT Spine2
			{
				OFFSET 0.168000 16.242897 -1.435500
				CHANNELS 3 Xrotation Yrotation Zrotation
				JOINT Neck
				{
					OFFSET 0.217200 18.631500 -1.679100
					CHANNELS 3 Xrotation Yrotation Zrotation
					JOINT Head
					{
						OFFSET 0.000000 6.599396 1.385900
						CHANNELS 3 Xrotation Yrotation Zrotation
						JOINT Hat
						{
							OFFSET -0.532200 27.220596 -10.096100
							CHANNELS 3 Xrotation Yrotation Zrotation
							End Site
							{
								OFFSET 0.000000 22.029861 0.000000
							}
						}
						JOINT HairD
						{
							OFFSET -10.777400 17.437393 -1.325900
							CHANNELS 3 Xrotation Yrotation Zrotation
							JOINT HairD1
							{
								OFFSET -3.290299 -11.051193 1.062200
								CHANNELS 3 Xrotation Yrotation Zrotation
								End Site
								{
									OFFSET 0.000000 11.579437 0.000000
								}
							}
						}
						JOINT HairB
						{
							OFFSET -10.777400 17.437393 1.467900
							CHANNELS 3 Xrotation Yrotation Zrotation
							JOINT HairB1
							{
								OFFSET -1.561200 -12.956299 3.590200
								CHANNELS 3 Xrotation Yrotation Zrotation
								End Site
								{
									OFFSET 0.000000 13.534866 0.000000
								}
							}
						}
						JOINT HairA
						{
							OFFSET 9.713100 17.437393 1.467900
							CHANNELS 3 Xrotation Yrotation Zrotation
							JOINT HairA1
							{
								OFFSET 1.561200 -12.956299 3.590200
								CHANNELS 3 Xrotation Yrotation Zrotation
								End Site
								{
									OFFSET 0.000000 13.534866 0.000000
								}
							}
						}
						JOINT HairC
						{
							OFFSET 9.713100 17.437393 -1.325900
							CHANNELS 3 Xrotation Yrotation Zrotation
							JOINT HairC1
							{
								OFFSET 3.290300 -11.051193 1.062200
								CHANNELS 3 Xrotation Yrotation Zrotation
								End Site
								{
									OFFSET 0.000000 11.579437 0.000000
								}
							}
						}
					}
				}
				JOINT LeftShoulder
				{
					OFFSET 5.101800 15.108002 -2.763700
					CHANNELS 3 Xrotation Yrotation Zrotation
					JOINT LeftArm
					{
						OFFSET 9.825497 2.506317 -1.597400
						CHANNELS 3 Xrotation Yrotation Zrotation
						JOINT LeftForeArm
						{
							OFFSET 21.966244 0.000000 0.000000
							CHANNELS 3 Xrotation Yrotation Zrotation
							JOINT LeftHand
							{
								OFFSET 33.879036 0.000000 0.000000
								CHANNELS 3 Xrotation Yrotation Zrotation
								JOINT LeftHandThumb1
								{
									OFFSET 6.715286 -2.359680 3.363841
									CHANNELS 3 Xrotation Yrotation Zrotation
									JOINT LeftHandThumb2
									{
										OFFSET 2.507072 -1.447464 1.447461
										CHANNELS 3 Xrotation Yrotation Zrotation
										JOINT LeftHandThumb3
										{
											OFFSET 2.898338 -1.673355 1.673357
											CHANNELS 3 Xrotation Yrotation Zrotation
											End Site
											{
												OFFSET -0.295959 3.727692 -0.131651
											}
										}
									}
								}
								JOINT LeftHandIndex1
								{
									OFFSET 14.190811 -0.254547 3.840278
									CHANNELS 3 Xrotation Yrotation Zrotation
									JOINT LeftHandIndex2
									{
										OFFSET 3.551727 0.000000 -0.000000
										CHANNELS 3 Xrotation Yrotation Zrotation
										JOINT LeftHandIndex3
										{
											OFFSET 2.894196 0.000000 0.000000
											CHANNELS 3 Xrotation Yrotation Zrotation
											End Site
											{
												OFFSET -1.000603 2.690872 0.366626
											}
										}
									}
								}
								JOINT LeftHandMiddle1
								{
									OFFSET 13.776489 0.000000 0.000000
									CHANNELS 3 Xrotation Yrotation Zrotation
									JOINT LeftHandMiddle2
									{
										OFFSET 3.438232 0.000000 0.000000
										CHANNELS 3 Xrotation Yrotation Zrotation
										JOINT LeftHandMiddle3
										{
											OFFSET 3.691551 0.000000 0.000000
											CHANNELS 3 Xrotation Yrotation Zrotation
											End Site
											{
												OFFSET -1.082298 3.499527 0.457670
											}
										}
									}
								}
								JOINT LeftHandRing1
								{
									OFFSET 13.966164 -0.268127 -3.067488
									CHANNELS 3 Xrotation Yrotation Zrotation
									JOINT LeftHandRing2
									{
										OFFSET 3.162567 0.000000 0.000000
										CHANNELS 3 Xrotation Yrotation Zrotation
										JOINT LeftHandRing3
										{
											OFFSET 3.324348 0.000000 0.000000
											CHANNELS 3 Xrotation Yrotation Zrotation
											End Site
											{
												OFFSET -0.861900 3.184998 0.405154
											}
										}
									}
								}
								JOINT LeftHandPinky1
								{
									OFFSET 13.131393 -0.168503 -5.746925
									CHANNELS 3 Xrotation Yrotation Zrotation
									JOINT LeftHandPinky2
									{
										OFFSET 2.849182 0.000000 0.000000
										CHANNELS 3 Xrotation Yrotation Zrotation
										JOINT LeftHandPinky3
										{
											OFFSET 2.805038 0.000000 0.000000
											CHANNELS 3 Xrotation Yrotation Zrotation
											End Site
											{
												OFFSET -0.882500 2.642609 0.325652
											}
										}
									}
								}
							}
							JOINT Left_Sleeve
							{
								OFFSET 6.592125 -0.646545 0.805568
								CHANNELS 3 Xrotation Yrotation Zrotation
								End Site
								{
									OFFSET -0.000179 20.275787 -0.000000
								}
							}
						}
					}
				}
				JOINT RightShoulder
				{
					OFFSET -5.731700 15.108002 -2.763700
					CHANNELS 3 Xrotation Yrotation Zrotation
					JOINT RightArm
					{
						OFFSET -9.825497 2.506317 -1.597400
						CHANNELS 3 Xrotation Yrotation Zrotation
						JOINT RightForeArm
						{
							OFFSET -21.966242 0.000000 0.000000
							CHANNELS 3 Xrotation Yrotation Zrotation
							JOINT RightHand
							{
								OFFSET -33.879032 0.000000 0.000000
								CHANNELS 3 Xrotation Yrotation Zrotation
								JOINT RightHandThumb1
								{
									OFFSET -6.715286 -2.359680 3.363841
									CHANNELS 3 Xrotation Yrotation Zrotation
									JOINT RightHandThumb2
									{
										OFFSET -2.507072 -1.447464 1.447461
										CHANNELS 3 Xrotation Yrotation Zrotation
										JOINT RightHandThumb3
										{
											OFFSET -2.898338 -1.673355 1.673357
											CHANNELS 3 Xrotation Yrotation Zrotation
											End Site
											{
												OFFSET 0.295959 3.727692 -0.131651
											}
										}
									}
								}
								JOINT RightHandIndex1
								{
									OFFSET -14.190811 -0.254547 3.840278
									CHANNELS 3 Xrotation Yrotation Zrotation
									JOINT RightHandIndex2
									{
										OFFSET -3.551727 0.000000 -0.000000
										CHANNELS 3 Xrotation Yrotation Zrotation
										JOINT RightHandIndex3
										{
											OFFSET -2.894196 0.000000 0.000000
											CHANNELS 3 Xrotation Yrotation Zrotation
											End Site
											{
												OFFSET 1.000603 2.690872 0.366626
											}
										}
									}
								}
								JOINT RightHandMiddle1
								{
									OFFSET -13.776489 0.000000 0.000000
									CHANNELS 3 Xrotation Yrotation Zrotation
									JOINT RightHandMiddle2
									{
										OFFSET -3.438232 0.000000 0.000000
										CHANNELS 3 Xrotation Yrotation Zrotation
										JOINT RightHandMiddle3
										{
											OFFSET -3.691551 0.000000 0.000000
											CHANNELS 3 Xrotation Yrotation Zrotation
											End Site
											{
												OFFSET 1.082298 3.499527 0.457670
											}
										}
									}
								}
								JOINT RightHandRing1
								{
									OFFSET -13.966164 -0.268127 -3.067488
									CHANNELS 3 Xrotation Yrotation Zrotation
									JOINT RightHandRing2
									{
										OFFSET -3.162567 0.000000 0.000000
										CHANNELS 3 Xrotation Yrotation Zrotation
										JOINT RightHandRing3
										{
											OFFSET -3.324348 0.000000 0.000000
											CHANNELS 3 Xrotation Yrotation Zrotation
											End Site
											{
												OFFSET 0.861900 3.184998 0.405154
											}
										}
									}
								}
								JOINT RightHandPinky1
								{
									OFFSET -13.131393 -0.168503 -5.746925
									CHANNELS 3 Xrotation Yrotation Zrotation
									JOINT RightHandPinky2
									{
										OFFSET -2.849182 0.000000 0.000000
										CHANNELS 3 Xrotation Yrotation Zrotation
										JOINT RightHandPinky3
										{
											OFFSET -2.805038 0.000000 0.000000
											CHANNELS 3 Xrotation Yrotation Zrotation
											End Site
											{
												OFFSET 0.882500 2.642609 0.325652
											}
										}
									}
								}
							}
							JOINT Right_Sleeve
							{
								OFFSET -6.592125 -0.646545 0.805568
								CHANNELS 3 Xrotation Yrotation Zrotation
								End Site
								{
									OFFSET 0.000179 20.275787 -0.000000
								}
							}
						}
					}
				}
				JOINT Bind_Right_JacketString
				{
					OFFSET -3.534800 11.969597 7.200700
					CHANNELS 3 Xrotation Yrotation Zrotation
					JOINT Bind_Right_JacketString1
					{
						OFFSET -0.319900 -6.102600 2.794100
						CHANNELS 3 Xrotation Yrotation Zrotation
						End Site
						{
							OFFSET 0.000000 6.719452 0.000000
						}
					}
				}
				JOINT Bind_Left_JacketString
				{
					OFFSET 2.904800 11.969597 7.200700
					CHANNELS 3 Xrotation Yrotation Zrotation
					JOINT Bind_Left_JacketString1
					{
						OFFSET 0.364800 -5.904503 3.186800
						CHANNELS 3 Xrotation Yrotation Zrotation
						End Site
						{
							OFFSET 0.000000 6.719513 0.000000
						}
					}
				}
				JOINT HairE
				{
					OFFSET 5.915200 17.612701 -11.592200
					CHANNELS 3 Xrotation Yrotation Zrotation
					JOINT HairE1
					{
						OFFSET 0.289200 -7.171898 -1.284500
						CHANNELS 3 Xrotation Yrotation Zrotation
						End Site
						{
							OFFSET 0.000000 7.291756 0.000000
						}
					}
				}
				JOINT HairF
				{
					OFFSET -0.864800 17.612701 -11.592200
					CHANNELS 3 Xrotation Yrotation Zrotation
					JOINT HairF1
					{
						OFFSET 0.000000 -14.087097 -2.127501
						CHANNELS 3 Xrotation Yrotation Zrotation
						End Site
						{
							OFFSET 0.000000 14.246841 0.000000
						}
					}
				}
				JOINT HairG
				{
					OFFSET -8.087700 17.612701 -11.592200
					CHANNELS 3 Xrotation Yrotation Zrotation
					JOINT HairG1
					{
						OFFSET -0.293600 -6.081398 -0.910100
						CHANNELS 3 Xrotation Yrotation Zrotation
						End Site
						{
							OFFSET 0.000000 6.156120 0.000000
						}
					}
				}
			}
		}
	}
	JOINT Pouch
	{
		OFFSET 0.000000 4.394501 10.847300
		CHANNELS 3 Xrotation Yrotation Zrotation
		End Site
		{
			OFFSET 0.000000 21.880577 0.000000
		}
	}
	JOINT Bag
	{
		OFFSET -13.229000 4.813004 -0.593300
		CHANNELS 3 Xrotation Yrotation Zrotation
		End Site
		{
			OFFSET 0.000000 21.880577 0.000000
		}
	}
	JOINT OccupyGuyFacialAnim_Joint
	{
		OFFSET 1.000000 -70.206398 -1.655000
		CHANNELS 3 Xrotation Yrotation Zrotation
		End Site
		{
			OFFSET 0.000000 21.880577 0.000000
		}
	}
}
MOTION
Frames: 4
Frame Time: 0.033333
0.013340 64.567345 0.099789 9.540975 -61.607746 10.158364 0.000000 0.000000 0.000000 -34.030017 13.174131 22.630278 36.645150 -7.061429 1.214782 -8.817792 -1.953540 -15.288981 -0.000000 -0.000003 0.000000 -0.000003 -0.000001 0.000003 -29.116734 -21.189349 -31.055173 35.640060 3.720360 -4.158991 -13.966018 0.510989 21.623530 -0.000000 -0.000000 0.000000 -0.000001 -0.000000 0.000000 15.063692 -0.338017 -4.297657 5.872399 0.563939 -2.798215 5.868718 0.648188 -2.860165 -3.632880 1.437142 3.747499 -20.005960 54.836765 2.407379 -0.000000 0.000000 -0.000000 -0.000000 0.000000 -0.000000 -0.000000 0.000000 0.000000 -0.000000 0.000000 -0.000001 0.000000 -0.000000 0.000000 -0.000000 0.000000 -0.000001 0.000000 -0.000000 0.000000 -0.000000 0.000000 -0.000000 -0.000000 0.000000 -0.000000 1.828106 -3.192689 -12.271568 -39.387413 26.350501 -34.911105 0.429353 -46.808482 0.416169 -10.315050 -0.130741 0.363015 40.109944 -15.297119 -0.360508 5.639830 28.097933 11.338841 -0.000000 0.000002 -0.000002 6.882274 2.840088 -61.140411 8.247979 7.640034 -89.897871 0.000001 0.000003 -0.000001 -2.345506 4.688886 -62.655204 8.754136 9.897076 -87.051294 0.000001 -0.000001 -0.000001 -9.042458 10.045653 -60.766171 8.524095 9.508831 -66.893015 -0.000002 0.000001 -0.000001 -17.946903 14.755017 -51.485840 8.868445 8.667056 -84.811968 -0.000002 0.000001 0.000001 0.000001 0.000000 0.000002 0.632613 7.257342 8.700395 7.936010 -9.680160 53.429892 -22.867439 36.194702 17.955459 -27.369917 10.432889 -17.813553 -2.346188 -6.100551 10.731439 2.364066 -23.806319 -8.771057 0.000000 0.000000 0.000001 -0.054756 0.532101 0.738736 0.019777 -0.087306 5.078499 -0.000000 -0.000001 0.000002 0.348254 -5.918520 2.583828 1.432603 -4.204237 24.052091 0.000002 -0.000002 -0.000003 1.205816 -11.756064 4.154787 1.794840 -3.771873 26.865402 -0.000000 -0.000002 0.000001 2.126208 -19.166870 11.319978 3.354770 -2.122232 18.828552 0.000001 -0.000000 0.000004 -0.000001 -0.000001 -0.000002 -0.000001 0.000002 -0.000000 -0.000002 0.000002 0.000001 -0.000001 0.000002 -0.000000 -0.000001 0.000002 -0.000000 -0.000001 0.000002 -0.000000 -0.000002 0.000002 0.000001 -0.000001 0.000002 -0.000000 -0.000001 0.000002 -0.000000 -0.000001 0.000002 -0.000000 -0.000002 0.000002 0.000001 0.000000 0.000000 0.000000 0.000000 0.000000 0.000000 0.000000 0.000000 0.000000 
1.307532 64.508682 -1.279407 6.585644 -60.553097 6.570091 0.000000 0.000001 -0.000000 -34.705445 12.555404 23.706741 35.153683 -8.537040 1.042598 -5.949485 -2.205070 -15.004735 0.000000 -0.000000 0.000000 0.000001 0.000003 -0.000000 -32.471088 -26.574683 -29.766412 37.514496 5.212908 -9.904462 -13.750820 1.608238 22.030977 -0.000000 0.000000 -0.000000 -0.000001 0.000000 0.000000 20.391564 0.325282 -4.194360 4.295021 1.738533 -1.888457 4.298160 1.786199 -2.084462 -3.525461 5.009556 2.860542 -17.817278 46.731519 -5.709538 0.000000 -0.000000 0.000000 0.000000 -0.000000 0.000000 0.000000 -0.000000 0.000000 0.000000 -0.000000 0.000000 -0.000000 0.000000 -0.000000 0.000000 -0.000000 0.000000 -0.000000 0.000000 -0.000000 0.000000 -0.000000 0.000000 0.000000 -0.000000 0.000000 1.741862 -3.984044 -12.081018 -43.670488 20.238836 -42.474269 26.595071 -40.591606 19.173547 -10.283305 -1.337326 3.990408 40.109948 -15.297117 -0.360505 5.639827 28.097930 11.338843 -0.000000 0.000002 0.000001 6.882275 2.840087 -61.140404 8.247978 7.640028 -89.897878 0.000000 0.000002 0.000000 -2.345506 4.688881 -62.655204 8.754136 9.897077 -87.051294 0.000002 -0.000000 -0.000001 -9.042463 10.045654 -60.766171 8.524096 9.508834 -66.893022 -0.000001 0.000005 -0.000001 -17.946906 14.755017 -51.485840 8.868447 8.667056 -84.811968 -0.000003 -0.000001 0.000003 0.000002 0.000001 -0.000002 0.814854 12.638867 13.292438 8.882499 -8.130158 47.752301 -11.953564 36.498147 11.019121 -19.861855 5.128560 -16.962666 -1.666649 -4.177382 8.032086 2.036241 -17.028727 -5.987701 0.000003 0.000000 0.000001 1.118837 1.905109 11.335725 0.020737 -0.086142 10.184334 -0.000000 0.000001 -0.000003 1.084051 -3.486260 12.950080 0.991265 -2.982671 23.812529 0.000003 -0.000000 -0.000001 2.520039 -7.712811 18.524359 1.349456 -2.632252 29.122820 0.000001 -0.000000 -0.000000 5.150432 -12.528671 33.130878 3.198270 -1.857629 20.997846 -0.000001 0.000001 -0.000003 0.000000 0.000000 0.000002 0.000002 0.000001 -0.000001 0.000002 -0.000004 0.000001 0.000002 0.000001 -0.000000 0.000002 0.000001 -0.000000 0.000002 0.000001 -0.000001 0.000002 -0.000004 0.000002 0.000002 0.000001 -0.000000 0.000002 0.000001 -0.000000 0.000002 0.000001 -0.000001 0.000002 -0.000004 0.000002 0.000000 0.000001 -0.000000 0.000000 0.000001 -0.000000 0.000000 0.000001 -0.000000 
0.595518 64.320160 -1.850562 -27.339432 -75.262585 -24.686385 0.000000 -0.000000 -0.000000 -19.270037 16.875246 26.487820 36.801425 -1.689507 1.668377 -9.604986 2.827245 -19.715623 0.000000 -0.000000 0.000000 -0.000000 -0.000001 0.000001 -31.783165 -26.883876 -28.894357 42.806882 14.005764 -16.002208 -14.785239 8.745805 19.464547 0.000000 -0.000000 0.000000 -0.000002 0.000001 -0.000000 21.274386 0.445978 -7.418435 5.717174 3.904673 -2.659347 5.679513 3.886415 -3.018443 21.622093 9.675456 -2.283174 -25.228653 40.122679 2.844551 0.000000 0.000001 0.000001 0.000000 0.000001 0.000001 0.000000 0.000001 0.000001 0.000000 0.000001 -0.000000 -0.000001 0.000000 -0.000002 0.000000 0.000001 -0.000000 -0.000001 0.000000 -0.000002 0.000000 0.000001 0.000001 0.000000 0.000001 0.000001 1.188386 -6.506025 -6.960635 -48.142684 24.205267 -41.011779 34.247781 -30.207700 24.527616 -6.161606 2.788307 -4.566579 40.109948 -15.297115 -0.360506 5.639822 28.097933 11.338841 -0.000000 0.000002 0.000001 6.882270 2.840084 -61.140404 8.247981 7.640030 -89.897878 0.000000 0.000000 -0.000002 -2.345507 4.688885 -62.655197 8.754139 9.897079 -87.051294 0.000001 0.000000 0.000001 -9.042459 10.045653 -60.766164 8.524090 9.508833 -66.893015 0.000001 0.000002 0.000000 -17.946904 14.755017 -51.485836 8.868449 8.667058 -84.811968 -0.000001 0.000002 -0.000000 -0.000002 0.000002 0.000000 0.428427 14.518409 13.565390 23.510402 22.777240 32.796485 -24.180314 26.456973 22.989056 -11.517653 4.274896 -37.702675 -0.953816 -2.715360 5.943064 1.580247 -11.423840 -3.887967 0.000000 0.000000 0.000003 1.801771 3.179389 20.776517 0.027946 -0.084169 14.863448 0.000002 0.000001 -0.000001 1.104638 -1.613615 21.875588 0.645573 -1.976891 23.926983 -0.000001 0.000001 -0.000001 2.356008 -4.715852 30.712321 0.939468 -1.720953 31.578977 0.000002 0.000000 -0.000002 4.806660 -7.791421 51.969659 3.023518 -1.583830 23.522330 -0.000004 0.000001 0.000001 0.000000 -0.000000 0.000000 0.000000 -0.000001 -0.000000 0.000001 0.000000 -0.000001 0.000000 -0.000001 0.000000 0.000000 -0.000001 0.000000 0.000000 -0.000001 -0.000000 0.000001 0.000000 -0.000001 0.000000 -0.000001 0.000000 0.000000 -0.000001 0.000000 0.000000 -0.000001 -0.000000 0.000001 0.000000 -0.000001 0.000000 -0.000000 -0.000000 0.000000 -0.000000 -0.000000 0.000000 -0.000000 -0.000000 
-1.115660 64.707016 -1.585749 -100.368428 -76.415371 -97.630423 -0.000001 -0.000000 -0.000000 -2.056611 22.803845 24.764581 32.639346 5.318566 2.111588 -10.625632 8.675487 -24.258713 0.000000 -0.000000 -0.000000 0.000001 0.000000 -0.000001 -29.039741 -27.284190 -26.789662 44.320473 21.955028 -19.171195 -13.996339 15.733389 17.005685 0.000000 0.000000 0.000000 -0.000000 -0.000001 -0.000003 16.642432 -0.850970 -5.234952 2.426257 0.826880 -4.342792 2.419583 0.708932 -4.429139 50.363250 11.368161 -10.817510 -12.708869 38.973862 3.836596 -0.000002 0.000000 -0.000001 -0.000002 0.000000 -0.000001 -0.000002 0.000000 -0.000001 -0.000002 0.000000 -0.000003 -0.000001 -0.000001 0.000002 -0.000002 0.000000 -0.000003 -0.000001 -0.000001 0.000002 -0.000002 0.000000 -0.000001 -0.000002 0.000000 -0.000001 1.137099 -0.871553 -9.850400 -57.624380 34.304663 -22.844404 35.082290 -26.368813 30.142793 6.006316 7.349103 -21.034288 40.109941 -15.297117 -0.360512 5.639825 28.097933 11.338844 0.000001 0.000002 0.000001 6.882271 2.840089 -61.140411 8.247980 7.640028 -89.897878 0.000001 0.000000 -0.000002 -2.345510 4.688886 -62.655210 8.754137 9.897080 -87.051294 0.000002 0.000000 0.000002 -9.042459 10.045654 -60.766164 8.524092 9.508831 -66.893022 0.000001 0.000002 -0.000001 -17.946904 14.755020 -51.485846 8.868442 8.667058 -84.811968 -0.000002 -0.000003 0.000002 -0.000000 0.000001 -0.000001 0.700208 15.677637 8.246574 35.976519 36.349304 28.929454 -36.560742 49.647583 26.746071 -6.800118 10.488244 -34.775201 -0.584139 -1.922380 4.731815 1.262929 -8.355663 -2.804275 0.000002 0.000001 -0.000001 1.944910 4.036865 25.522800 0.029735 -0.083113 17.178897 0.000001 -0.000002 0.000002 0.861929 -0.587237 26.493230 0.454678 -1.434229 23.857243 -0.000002 0.000002 0.000001 1.742645 -3.240560 37.080312 0.681437 -1.247516 32.646952 0.000000 -0.000004 -0.000003 3.576735 -5.952922 61.591197 2.827336 -1.312691 26.313490 -0.000003 -0.000001 -0.000001 -0.000002 -0.000001 0.000001 0.000000 -0.000000 -0.000000 0.000001 0.000000 -0.000000 0.000000 -0.000000 -0.000000 0.000000 -0.000000 -0.000000 0.000000 -0.000000 -0.000000 0.000001 0.000000 -0.000000 0.000000 -0.000000 -0.000000 0.000000 -0.000000 -0.000000 0.000000 -0.000000 -0.000000 0.000001 0.000000 -0.000000 -0.000001 -0.000000 -0.000000 -0.000001 -0.000000 -0.000000 -0.000001 -0.000000 -0.000000 
